<svg width="978.5" height="836.9" xmlns="http://www.w3.org/2000/svg">
 <metadata id="metadata345">image/svg+xml</metadata>

 <style type="text/css">.st0{fill:#E8E8E8;}
	.st1{fill:#314BC4;}
	.st2{opacity:0.83;}
	.st3{opacity:0.11;}
	.st4{opacity:7.000000e-002;}
	.st5{fill:none;stroke:#000000;stroke-miterlimit:10;}
	.st6{fill:#322366;}
	.st7{fill:#423388;}
	.st8{fill:#382874;}
	.st9{fill:#C9CACC;}
	.st10{opacity:0.1;}
	.st11{opacity:3.000000e-002;fill:none;stroke:#FFFFFF;stroke-width:2;stroke-miterlimit:10;}
	.st12{opacity:3.000000e-002;fill:#FFFFFF;stroke:#000000;stroke-width:2;stroke-miterlimit:10;}
	.st13{opacity:5.000000e-002;}
	.st14{fill:#FFFFFF;}
	.st15{fill:#2C2454;}
	.st16{fill:#CDCDCD;}
	.st17{opacity:0.13;}
	.st18{opacity:8.000000e-002;}
	.st19{fill:#FFDC36;}
	.st20{opacity:0.65;}
	.st21{opacity:8.000000e-002;stroke:#000000;stroke-miterlimit:10;}
	.st22{fill:#E7E7E7;}
	.st23{display:none;}
	.st24{display:inline;}
	.st25{font-family:'FranklinGothic-DemiCond';}
	.st26{font-size:20.8089px;}
	.st27{font-size:6.8089px;}
	.st28{font-size:20.2664px;}
	.st29{font-size:6.9363px;}
	.st30{fill:#F7F7F7;}
	.st31{fill:#4DD0CA;}
	.st32{fill:#ED0C1E;}</style>
 <g>
  <title>background</title>
  <rect fill="none" id="canvas_background" height="838.9" width="980.5" y="-1" x="-1"/>
 </g>
 <g>
  <title>Layer 1</title>
  <g id="Base">
   <path class="st1" d="m736,142.8c0,0 2,-2.8 4.3,-3.4c2.3,-0.6 32.9,-5.3 79.2,12.1s78.6,45.6 74,54.6c-2.3,3.5 -3.4,5 -3.4,5l-154.1,-68.3z" id="path5"/>
   <path class="st6" d="m357.5,406.3l-3.7,38l28,-16.3c0,0 40.9,-11 107.5,-11s107.4,11 107.4,11l13.8,4l9,-25.7l-262,0z" id="path19"/>
   <path class="st7" d="m960.8,362.3c-8,-17.5 -126.8,-181.5 -126.8,-181.5s-160,-80.8 -344.7,-80.8s-344.8,80.8 -344.8,80.8s-118.7,164 -126.7,181.5s-17.8,285.2 -17.8,285.2s4.5,73.3 9,100.8s20.5,52 20.5,52s26.5,51.8 71,32.3s56,-111.5 56,-111.5s12.5,-84 18,-115.5s14,-45.5 14,-45.5l188.2,-136.3c26.2,-12 112.6,-14 112.6,-14s86.4,2 112.6,14l188.1,136.2c0,0 8.5,14 14,45.5s18,115.5 18,115.5s11.5,92 56,111.5s71,-32.3 71,-32.3s16,-24.5 20.5,-52s9,-100.8 9,-100.8s-9.7,-267.6 -17.7,-285.1z" id="path21"/>
   <g id="g31">
    <g id="g27">
     <path class="st8" d="m521.9,541.7c4.1,-36.1 35.7,-64.3 51.7,-78.8c32.2,-29.1 28.6,-62.4 27,-111.6c-2.1,-67.7 32.4,-107.9 35.6,-112.2c3.6,-4.8 107,-120.3 239,-38.9c124.6,89.8 63,224.7 60.4,230.1c-1.2,2.4 -25,54.8 -97.7,83c-53,20.6 -70.9,61.6 -76.7,82.2c-0.6,4 -1.4,8.2 -2.6,12.5l0,0l0,0c-5.8,20.4 -20,43.1 -51.6,60.5c-74.7,41 -140.6,-8.7 -140.6,-8.7s-53.6,-36.5 -44.5,-118.1z" id="path23"/>
     <path class="st8" d="m529.9,548.8c4.1,-35.8 35.7,-63.8 51.7,-78.2c32.2,-28.8 28.6,-61.9 27,-110.8c-2.1,-67.1 32.4,-107.1 35.6,-111.3c3.6,-4.8 107,-119.4 239,-38.5c124.6,89.1 63,222.9 60.4,228.3c-1.2,2.4 -25,54.3 -97.7,82.3c-53,20.4 -70.9,61.1 -76.7,81.6c-0.6,4 -1.4,8.1 -2.6,12.4l0,0l0,0c-5.8,20.2 -20,42.8 -51.6,60c-74.7,40.7 -140.6,-8.6 -140.6,-8.6s-53.6,-36.2 -44.5,-117.2z" id="path25"/>
    </g>
    <path class="st7" d="m528.9,541.8c4.1,-35.8 35.7,-63.8 51.7,-78.2c32.2,-28.8 28.6,-61.9 27,-110.8c-2.1,-67.1 32.4,-107.1 35.6,-111.3c3.6,-4.8 107,-119.4 239,-38.5c124.6,89.1 63,222.9 60.4,228.3c-1.2,2.4 -25,54.3 -97.7,82.3c-53,20.4 -70.9,61.1 -76.7,81.6c-0.6,4 -1.4,8.1 -2.6,12.4l0,0l0,0c-5.8,20.2 -20,42.8 -51.6,60c-74.7,40.7 -140.6,-8.6 -140.6,-8.6s-53.6,-36.2 -44.5,-117.2z" id="path29"/>
   </g>
   <g id="g41">
    <g id="g37">
     <path class="st8" d="m456.6,541.7c-4.1,-36.1 -35.7,-64.3 -51.7,-78.8c-32.2,-29.1 -28.6,-62.4 -27,-111.6c2.1,-67.7 -32.4,-107.9 -35.6,-112.2c-3.6,-4.8 -107,-120.3 -239,-38.9c-124.6,89.8 -63,224.7 -60.4,230.1c1.2,2.4 25,54.8 97.7,83c53,20.6 70.9,61.6 76.7,82.2c0.6,4 1.4,8.2 2.6,12.5l0,0l0,0c5.8,20.4 20,43.1 51.6,60.5c74.7,41 140.6,-8.7 140.6,-8.7s53.6,-36.5 44.5,-118.1z" id="path33"/>
     <path class="st8" d="m448.6,548.8c-4.1,-35.8 -35.7,-63.8 -51.7,-78.2c-32.2,-28.8 -28.6,-61.9 -27,-110.8c2.1,-67.1 -32.4,-107.1 -35.6,-111.3c-3.6,-4.8 -107,-119.4 -239,-38.5c-124.6,89.1 -63,222.9 -60.4,228.3c1.2,2.4 25,54.3 97.7,82.3c53,20.4 70.9,61.1 76.7,81.6c0.6,4 1.4,8.1 2.6,12.4l0,0l0,0c5.8,20.2 20,42.8 51.6,60c74.7,40.7 140.6,-8.6 140.6,-8.6s53.6,-36.2 44.5,-117.2z" id="path35"/>
    </g>
    <path class="st7" d="m449.6,541.8c-4.1,-35.8 -35.7,-63.8 -51.7,-78.2c-32.2,-28.8 -28.6,-61.9 -27,-110.8c2.1,-67.1 -32.4,-107.1 -35.6,-111.3c-3.6,-4.8 -107,-119.4 -239,-38.5c-124.6,89.1 -63,222.9 -60.4,228.3c1.2,2.4 25,54.3 97.7,82.3c53,20.4 70.9,61.1 76.7,81.6c0.6,4 1.4,8.1 2.6,12.4l0,0l0,0c5.8,20.2 20,42.8 51.6,60c74.7,40.7 140.6,-8.6 140.6,-8.6s53.6,-36.2 44.5,-117.2z" id="path39"/>
   </g>
   <g id="g86">
    <g id="g84">
     <g id="GAMECUBE_8_">
      <path class="st9" d="m400.1,180.8l0,5.3l-21.7,0l0,13.4l15.8,0l0,-3.7l-9.2,0l0,-5.6l15.4,0c0,0 0,6.1 0,10.2c-0.1,1.7 -3.5,5.1 -5.4,5.1c-3.6,0 -13.2,0 -17.7,0c-2.5,0 -5.9,-3.4 -5.9,-5.1c0,-5.2 0,-10.3 0,-14.8c0,-2.9 1.9,-4.8 4.3,-4.8c4.2,0 24.4,0 24.4,0z" id="path43"/>
      <polygon class="st9" points="416.9,199.3 416.9,205.1 399,205.1 413.5,180.5 419.3,180.5 430.4,199.3 430.4,180.5 436.8,180.5       446.7,197.4 456.7,180.5 462.9,180.5 462.9,205.1 456.7,205.1 456.6,192.6 449.4,205.1 444,205.1 436.8,192.6 436.8,205.1       426.1,205.1 416.2,188.2 409.7,199.3     " id="polygon45"/>
      <polygon class="st9" points="465.3,180.5 465.3,205.1 490.5,205.1 490.5,199.3 472.1,199.3 472.1,195.1 482.8,195.1       482.8,189.7 472.1,189.7 472.1,185.8 490.5,185.8 490.5,180.5     " id="polygon47"/>
      <path class="st9" d="m515.8,190.2l6.3,0l0,-5.3c0,0 0.7,-4.4 -3.9,-4.4c0,0 -14.7,0 -19.9,0c-2,0 -2.9,0.9 -2.9,2.4c0,2.5 0,12.1 0,17.4c0,2.4 2.3,4.8 3.8,4.8c4.4,0 19.4,0 19.4,0s3.4,0.5 3.4,-3.3s0,-7.2 0,-7.2l-6.3,0l0,4.8l-14.1,0l0,-13.1l13.6,0l0,3.9l0.6,0z" id="path49"/>
      <path class="st9" d="m524.5,180.5l6.8,0l0,18.9l14,0l0,-18.9l6.8,0l0,20.4c0,0 0.4,4.4 -5.8,4.4s-16.5,0 -16.5,0s-5.3,0.5 -5.3,-4.4c0,-3.5 0,-20.4 0,-20.4z" id="path51"/>
      <g id="XMLID_27_">
       <g id="g55">
        <path class="st9" d="m581.2,195l0,6.3c0,2.2 -1.6,3.9 -6.8,3.9c-4.6,0 -19.9,0 -19.9,0l0,-24.7c0,0 20.1,0 23.3,0c2.1,0 3.4,1.2 3.4,3.4c0,1.7 0,6.1 0,6.8c0,0.5 -0.7,1.5 -2.4,1.5c0,0.1 0,0 0,0.5c1.1,-0.1 2.4,1.1 2.4,2.3zm-6.3,3.9c0,-0.6 0,-2.1 0,-2.9c0,-0.8 -0.2,-1 -0.5,-1c-0.6,0 -13.1,0 -13.1,0l0,4.4c0,0 9.4,0 12.6,0c0.7,0 1,-0.3 1,-0.5zm0,-9.7c0,-0.6 0,-2.1 0,-2.9c0,-0.8 -0.2,-1 -0.5,-1c-0.6,0 -13.1,0 -13.1,0l0,4.4c0,0 9.4,0 12.6,0c0.7,0 1,-0.3 1,-0.5z" id="path53"/>
       </g>
      </g>
      <polygon class="st9" points="583.6,205.2 608.8,205.2 608.8,199.3 589.9,199.3 589.9,195 600.6,195 600.6,189.7 589.9,189.7       589.9,185.8 608.3,185.8 608.3,180.4 583.6,180.4     " id="polygon58"/>
     </g>
     <g id="NINTENDO_8_">
      <polygon class="st9" points="376.7,155.3 376.7,173.6 380.1,173.6 380.1,160.1 387.4,173.6 391.2,173.6 391.2,155.3       387.3,155.3 387.3,166.3 381.5,155.3     " id="polygon61"/>
      <polygon class="st9" points="434.8,155.3 434.8,173.6 438.2,173.6 438.2,160.1 445.5,173.6 449.4,173.6 449.4,155.3       445.5,155.3 445.5,166.3 439.7,155.3     " id="polygon63"/>
      <rect x="411.1" y="155.3" class="st9" width="3.9" height="18.4" id="rect65"/>
      <polygon class="st9" points="465.3,155.3 465.3,158.2 471.2,158.2 471.2,173.6 475.1,173.6 475.1,158.2 480.9,158.2       480.9,155.3     " id="polygon67"/>
      <path class="st9" d="m498.8,162l0,0.5l10.7,0l0,2.9l-10.7,0c0,0 0,2.8 0,3.9c0,0.4 1,1.4 1.4,1.4c1.2,0 9.2,0 9.2,0l0,2.9c0,0 -7.8,0 -10.7,0c-2,0 -3.4,-1.7 -3.4,-3.4c0,-0.4 0,-8.7 0,-11.6c0,-2.1 1.3,-3.4 3.4,-3.4l10.7,0l0,2.9c0,0 -6.4,0 -8.7,0c-0.9,0 -1.9,1 -1.9,1.5" id="path69"/>
      <polygon class="st9" points="526.9,173.7 530.3,173.7 530.3,160.2 537.6,173.7 541,173.7 541,155.3 537.6,155.3 537.6,166.3       531.3,155.3 526.9,155.3     " id="polygon71"/>
      <g id="XMLID_26_">
       <g id="g75">
        <path class="st9" d="m573,158.6l0,11.7c0,0.9 -2.5,3.4 -3.9,3.4c-2.9,0 -10.6,0 -10.6,0l0,-18.4c0,0 7.5,0 9.7,0c2.9,0 4.8,1.9 4.8,3.3zm-3.4,10.7c0,-1.3 0,-7 0,-9.7c0,-0.3 -1.1,-1.5 -1.9,-1.5c-1.5,0 -5.8,0 -5.8,0l0,13.1c0,0 4.1,0 5.8,0c0.5,0 1.9,-1.3 1.9,-1.9z" id="path73"/>
       </g>
      </g>
      <g id="XMLID_25_">
       <g id="g80">
        <path class="st9" d="m604.5,159.6c0,1.3 0,7 0,9.7c0,2.8 -2.1,4.9 -5.3,4.9c0,0 0,0 0,0c-2.8,0 -2,0 -4.8,0l0,0c-3.1,0 -5.2,-1.9 -5.3,-4.6c0,-0.1 0,-0.2 0,-0.3c0,-1.8 0,-7.8 0,-9.7c0,-0.3 0,-0.5 0,-0.5c0,-1.9 2,-3.8 4.3,-3.8c1.7,0 6.8,0 6.8,0c2.7,-0.1 4.3,1.5 4.3,4.3zm-3.9,9.2c0,-0.5 0,-7.9 0,-8.7c0,-0.7 -1.2,-2 -1.9,-2c-0.7,0 -3.8,0 -3.8,0c-1,0 -2,1 -2,1.9c0,0.6 0,7.9 0,8.8c0,1.4 0.5,1.9 1.5,1.9c0.9,0 3.2,0 4.4,0c0.8,0 1.8,-0.9 1.8,-1.9z" id="path78"/>
       </g>
      </g>
     </g>
    </g>
   </g>
   <g id="g92">
    <circle class="st10" cx="327.9" cy="561.9" r="81.3" id="circle88"/>
    <circle class="st11" cx="327.9" cy="561.9" r="81.3" id="circle90"/>
   </g>
   <circle class="st12" cx="788.2" cy="344.7" r="109.7" id="circle94"/>
   <path d="m788.2,285.7c-32.5,0 -59,26.5 -59,59s26.5,59 59,59s59,-26.5 59,-59s-26.5,-59 -59,-59l0,0z" id="path96"/>
   <path d="m769.9,206.6l0,0c-10.1,0 -18.6,1.6 -22.8,3c-10,3.3 -31.8,15.6 -39.3,30.7c-2.9,5.9 -3.5,11.6 -1.7,17.1c5.7,17 19.7,18.9 25.4,18.9c2.1,0 3.5,-0.2 3.6,-0.3l0.1,0l0.1,0c7.8,-2.5 12,-4.9 15.8,-7c3.3,-1.9 6.2,-3.5 10.9,-4.8c9.5,-2.7 23.2,-2.8 24.7,-2.8l0.2,0l0.1,0l0.1,0c0.5,-0.1 12.7,-1.4 19.7,-10.6c4.1,-5.4 5.5,-12.4 4.1,-20.7c-1.4,-8.4 -6.7,-14.7 -15.5,-18.7c-8.4,-4 -18.5,-4.8 -25.5,-4.8l0,0z" id="path98"/>
   <path d="m886.8,269.5c-1.6,0 -3.2,0.2 -4.8,0.6c-22.7,5.6 -21,27.1 -20.9,27.4l0,0.1l0,0.1c1.8,8 3.9,12.4 5.7,16.3c1.6,3.4 3,6.4 3.9,11.3c2,10.3 0.7,24.9 0.7,25.1l0,0.1l0,0.1c0,0.3 0.8,26.4 25.9,26.4c1.1,0 2.2,-0.1 3.4,-0.1c7.2,-0.6 13.1,-4.1 17.7,-10.3c10.6,-14.6 10.3,-41.2 7.9,-51.6c-3.3,-13.4 -19.2,-45.5 -39.5,-45.5l0,0z" id="path100"/>
   <path d="m676.5,364.2c-20.7,0 -37.5,16.8 -37.5,37.5c0,20.7 16.8,37.5 37.5,37.5c20.7,0 37.5,-16.8 37.5,-37.5c0,-20.7 -16.8,-37.5 -37.5,-37.5l0,0z" id="path102"/>
   <g class="st13" id="g108">
    <path class="st14" d="m189,453.1c-62.3,0 -113,-50.7 -113,-113c0,-62.3 50.7,-113 113,-113s113,50.7 113,113c0,62.3 -50.7,113 -113,113z" id="path104"/>
    <path d="m189,228.1c29.9,0 58,11.6 79.2,32.8c21.1,21.1 32.8,49.3 32.8,79.2c0,29.9 -11.6,58 -32.8,79.2s-49.3,32.8 -79.2,32.8c-29.9,0 -58,-11.6 -79.2,-32.8s-32.8,-49.3 -32.8,-79.2c0,-29.9 11.6,-58 32.8,-79.2c21.2,-21.1 49.3,-32.8 79.2,-32.8m0,-2c-62.9,0 -114,51 -114,114s51,114 114,114s114,-51 114,-114s-51,-114 -114,-114l0,0z" id="path106"/>
   </g>
   <g id="Stick_BG">
    <path class="st15" d="m184.5,427.7l-55.9,-26.7c-0.9,-0.4 -1.5,-1.1 -1.8,-2l-21.4,-58.7c-0.3,-0.9 -0.3,-1.9 0.1,-2.7l25.6,-56.3c0.4,-0.9 1.1,-1.6 2.1,-1.9l57.6,-21c0.9,-0.3 1.9,-0.3 2.8,0.1l55.9,26.7c0.9,0.4 1.5,1.1 1.8,2l21.4,58.7c0.3,0.9 0.3,1.9 -0.1,2.7l-25.7,56.4c-0.4,0.9 -1.1,1.6 -2.1,1.9l-57.6,21c-0.8,0.3 -1.8,0.2 -2.7,-0.2z" id="path110"/>
    <path class="st16" d="m184.7,423l-52.6,-25.1c-0.9,-0.4 -1.5,-1.1 -1.8,-2l-20.1,-55.3c-0.3,-0.9 -0.3,-1.9 0.1,-2.7l24.1,-53c0.4,-0.9 1.1,-1.6 2.1,-1.9l54.2,-19.7c0.9,-0.3 1.9,-0.3 2.8,0.1l52.6,25.1c0.9,0.4 1.5,1.1 1.8,2l20.1,55.3c0.3,0.9 0.3,1.9 -0.1,2.7l-24.1,53c-0.4,0.9 -1.1,1.6 -2.1,1.9l-54.2,19.7c-0.9,0.3 -2,0.3 -2.8,-0.1z" id="path112"/>
    <g class="st17" id="g122">
     <path d="m219.4,275.7l1.2,0.6c17.1,8.2 30.3,22.7 36.8,40.5l-9.6,-26.4c-0.3,-0.9 -1,-1.6 -1.8,-2l-52.6,-25.1c-0.9,-0.4 -1.9,-0.5 -2.8,-0.1l-27.1,9.9c18.2,-6.8 38.4,-5.8 55.9,2.6z" id="path114"/>
     <path d="m163.5,273l-27.1,9.9c-0.9,0.3 -1.7,1 -2.1,1.9l-11.9,26.2c8,-17.7 22.8,-31.4 41.1,-38z" id="path116"/>
     <path d="m158.6,410.5l-1.2,-0.6c-17.1,-8.2 -30.3,-22.7 -36.8,-40.5l-0.9,-2.5c-6.5,-17.8 -5.7,-37.5 2.1,-54.7l0,0l-11.7,25.6c-0.4,0.9 -0.4,1.9 -0.1,2.7l20.1,55.3c0.3,0.9 1,1.6 1.8,2l52.6,25.1c0.9,0.4 1.9,0.5 2.8,0.1l27.1,-9.9c-18.1,6.8 -38.2,5.8 -55.8,-2.6z" id="path118"/>
     <path d="m268,345.7l-10.4,-28.6l0.8,2.2c6.5,17.8 5.7,37.5 -2.1,54.7l-0.5,1.2c-8,17.7 -22.9,31.4 -41.1,38l0,0l27.1,-9.9c0.9,-0.3 1.7,-1 2.1,-1.9l24.1,-53c0.2,-0.9 0.3,-1.8 0,-2.7z" id="path120"/>
    </g>
   </g>
   <g id="C_Stick_BG">
    <path class="st18" d="m645.8,649.2l-55.8,-26.7c-0.9,-0.4 -1.5,-1.1 -1.8,-2l-21.4,-58.7c-0.3,-0.9 -0.3,-1.9 0.1,-2.7l25.6,-56.3c0.4,-0.9 1.1,-1.6 2.1,-1.9l57.6,-21c0.9,-0.3 1.9,-0.3 2.8,0.1l55.9,26.7c0.9,0.4 1.5,1.1 1.8,2l21.4,58.7c0.3,0.9 0.3,1.9 -0.1,2.7l-25.6,56.3c-0.4,0.9 -1.1,1.6 -2.1,1.9l-57.6,21c-1,0.3 -2,0.3 -2.9,-0.1z" id="path125"/>
    <path class="st19" d="m646,644.4l-52.6,-25.1c-0.9,-0.4 -1.5,-1.1 -1.8,-2l-20.2,-55.3c-0.3,-0.9 -0.3,-1.9 0.1,-2.7l24.1,-53c0.4,-0.9 1.1,-1.6 2.1,-1.9l54.2,-19.7c0.9,-0.3 1.9,-0.3 2.8,0.1l52.6,25.1c0.9,0.4 1.5,1.1 1.8,2l20.1,55.3c0.3,0.9 0.3,1.9 -0.1,2.7l-24.1,53c-0.4,0.9 -1.1,1.6 -2.1,1.9l-54.2,19.7c-0.8,0.4 -1.8,0.3 -2.7,-0.1z" id="path127"/>
    <g class="st17" id="g137">
     <path d="m680.8,497.1l1.2,0.6c17.1,8.2 30.3,22.7 36.8,40.5l-9.6,-26.4c-0.3,-0.9 -1,-1.6 -1.8,-2l-52.6,-25.1c-0.9,-0.4 -1.9,-0.5 -2.8,-0.1l-27.1,9.9c18.2,-6.7 38.3,-5.8 55.9,2.6z" id="path129"/>
     <path d="m624.8,494.4l-27.1,9.9c-0.9,0.3 -1.7,1 -2.1,1.9l-11.9,26.2c8.1,-17.6 22.9,-31.3 41.1,-38z" id="path131"/>
     <path d="m620,632l-1.2,-0.6c-17.1,-8.2 -30.3,-22.7 -36.8,-40.5l-0.9,-2.5c-6.5,-17.8 -5.7,-37.5 2.1,-54.7l0,0l-11.7,25.6c-0.4,0.9 -0.4,1.9 -0.1,2.7l20.1,55.3c0.3,0.9 1,1.6 1.8,2l52.6,25.1c0.9,0.4 1.9,0.5 2.8,0.1l27.1,-9.9c-18.1,6.7 -38.3,5.7 -55.8,-2.6z" id="path133"/>
     <path d="m729.3,567.1l-10.4,-28.6l0.8,2.2c6.5,17.8 5.7,37.5 -2.1,54.7l-0.5,1.2c-8,17.7 -22.9,31.4 -41.1,38l0,0l27.1,-9.9c0.9,-0.3 1.7,-1 2.1,-1.9l24.1,-53c0.3,-0.8 0.3,-1.8 0,-2.7z" id="path135"/>
    </g>
   </g>
   <g id="g189">
    <g id="D-Pad_BG_1_" class="st20">
     <path d="m312.4,628.8c-3.9,0 -7.1,-3.2 -7.1,-7.1l0,-35.1c0,-1.1 -0.9,-2 -2,-2l-35.1,0c-3.9,0 -7.1,-3.2 -7.1,-7.1l0,-31c0,-3.9 3.2,-7.1 7.1,-7.1l35.1,0c1.1,0 2,-0.9 2,-2l0,-35.1c0,-3.9 3.2,-7.1 7.1,-7.1l31,0c3.9,0 7.1,3.2 7.1,7.1l0,35.1c0,1.1 0.9,2 2,2l35.1,0c3.9,0 7.1,3.2 7.1,7.1l0,31c0,3.9 -3.2,7.1 -7.1,7.1l-35.1,0c-1.1,0 -2,0.9 -2,2l0,35.1c0,3.9 -3.2,7.1 -7.1,7.1l-31,0z" id="path140"/>
     <path d="m343.4,496.6c3.1,0 5.6,2.5 5.6,5.6l0,35.1c0,1.9 1.5,3.5 3.5,3.5l35.1,0c3.1,0 5.6,2.5 5.6,5.6l0,31c0,3.1 -2.5,5.6 -5.6,5.6l-35.1,0c-1.9,0 -3.5,1.5 -3.5,3.5l0,35.1c0,3.1 -2.5,5.6 -5.6,5.6l-31,0c-3.1,0 -5.6,-2.5 -5.6,-5.6l0,-35.1c0,-1.9 -1.5,-3.5 -3.5,-3.5l-35.1,0c-3.1,0 -5.6,-2.5 -5.6,-5.6l0,-31c0,-3.1 2.5,-5.6 5.6,-5.6l35.1,0c1.9,0 3.5,-1.5 3.5,-3.5l0,-35.1c0,-3.1 2.5,-5.6 5.6,-5.6l31,0m0,-3l-31,0c-4.8,0 -8.6,3.9 -8.6,8.6l0,35.1c0,0.2 -0.2,0.5 -0.5,0.5l-35.1,0c-4.8,0 -8.6,3.9 -8.6,8.6l0,31c0,4.8 3.9,8.6 8.6,8.6l35.1,0c0.2,0 0.5,0.2 0.5,0.5l0,35.1c0,4.8 3.9,8.6 8.6,8.6l31,0c4.8,0 8.6,-3.9 8.6,-8.6l0,-35.1c0,-0.2 0.2,-0.5 0.5,-0.5l35.1,0c4.8,0 8.6,-3.9 8.6,-8.6l0,-31c0,-4.8 -3.9,-8.6 -8.6,-8.6l-35.1,0c-0.2,0 -0.5,-0.2 -0.5,-0.5l0,-35.1c0,-4.8 -3.9,-8.6 -8.6,-8.6l0,0z" id="path142"/>
    </g>
    <path class="st0" d="m387.6,540.8l-35.1,0c-1.9,0 -3.5,-1.5 -3.5,-3.5l0,-35.1c0,-3.1 -2.5,-5.6 -5.6,-5.6l-31,0c-3.1,0 -5.6,2.5 -5.6,5.6l0,35.1c0,1.9 -1.5,3.5 -3.5,3.5l-35.1,0c-3.1,0 -5.6,2.5 -5.6,5.6l0,31c0,3.1 2.5,5.6 5.6,5.6l35.1,0c1.9,0 3.5,1.5 3.5,3.5l0,35.1c0,3.1 2.5,5.6 5.6,5.6l31,0c3.1,0 5.6,-2.5 5.6,-5.6l0,-35.1c0,-1.9 1.5,-3.5 3.5,-3.5l35.1,0c3.1,0 5.6,-2.5 5.6,-5.6l0,-31c0,-3.1 -2.5,-5.6 -5.6,-5.6z" id="path145"/>
    <g class="st18" id="g151">
     <path d="m293.4,572.1c-0.2,0 -0.6,-0.1 -1.3,-0.4c-3,-1.5 -16.1,-8.2 -16.2,-8.3c-0.6,-0.2 -1.6,-0.9 -1.7,-1.5c0,-0.6 1.1,-1.3 1.6,-1.5c0.2,-0.1 13.3,-6.9 16.2,-8.3c0.7,-0.3 1.1,-0.4 1.3,-0.4c0.3,0 0.4,0.1 0.4,0.2c0.2,0.2 0.2,0.7 0.2,0.9l0,18.3c0,0.2 0,0.7 -0.2,0.9c0.1,0 -0.1,0.1 -0.3,0.1z" id="path147"/>
     <path d="m293.4,552.2c0,0 0,0 0,0c0,0 0,0 0,0c0.1,0.1 0.2,0.3 0.1,0.5l0,0.1l0,0.1l0,9.1l0,9.1l0,0.1l0,0.1c0,0.2 0,0.4 0,0.5c0,0 0,0 -0.1,0c-0.1,0 -0.5,0 -1.1,-0.3c-3,-1.4 -16.1,-8.2 -16.2,-8.3l0,0l0,0c-0.7,-0.3 -1.3,-0.8 -1.3,-1c0,-0.2 0.6,-0.8 1.3,-1.1l0,0l0,0c0.1,-0.1 13.2,-6.9 16.2,-8.3c0.6,-0.6 0.9,-0.6 1.1,-0.6m0,-1c-0.4,0 -0.9,0.1 -1.5,0.4c-3,1.5 -16.2,8.3 -16.2,8.3s-1.9,0.8 -1.9,2c0,1.2 1.9,2 1.9,2s13.2,6.8 16.2,8.3c0.7,0.3 1.2,0.4 1.5,0.4c1.3,0 1.1,-1.6 1.1,-1.6l0,-9.1l0,-9.1c0,0 0.2,-1.6 -1.1,-1.6l0,0z" id="path149"/>
    </g>
    <g class="st18" id="g157">
     <path d="m337.2,528c-0.1,0 -0.1,0 -0.2,0l-18.3,0c-0.1,0 -0.1,0 -0.2,0c-0.2,0 -0.6,0 -0.8,-0.3c-0.2,-0.3 -0.1,-0.9 0.3,-1.7c1.5,-3 8.2,-16.1 8.3,-16.2c0.2,-0.6 0.9,-1.7 1.5,-1.7c0.6,0 1.3,1.1 1.5,1.6c0.1,0.2 6.9,13.3 8.3,16.2c0.4,0.8 0.5,1.4 0.3,1.7c-0.1,0.4 -0.5,0.4 -0.7,0.4z" id="path153"/>
     <path d="m327.9,508.7c0.2,0 0.7,0.6 1,1.3l0,0l0,0c0.1,0.1 6.9,13.2 8.3,16.2c0.4,0.9 0.3,1.2 0.4,1.2c0,0 -0.2,0.1 -0.4,0.1c-0.1,0 -0.1,0 -0.1,0l-0.1,0l0,0l-9.1,0l-9.1,0l-0.1,0l-0.1,0c0,0 -0.1,0 -0.1,0c-0.2,0 -0.3,0 -0.4,0c0,0 0,0 0,0c0,0 -0.1,-0.3 0.3,-1.2c1.4,-3 8.2,-16.1 8.3,-16.2l0,0l0,0c0.4,-0.7 0.9,-1.3 1.2,-1.4m0,-1c-1.2,0 -2,1.9 -2,1.9s-6.8,13.2 -8.3,16.2c-1.2,2.5 0.3,2.7 0.9,2.7c0.1,0 0.2,0 0.2,0l9.1,0l9.1,0c0,0 0.1,0 0.2,0c0.6,0 2.1,-0.2 0.9,-2.7c-1.5,-3 -8.3,-16.2 -8.3,-16.2s-0.7,-1.9 -1.8,-1.9l0,0z" id="path155"/>
    </g>
    <g class="st18" id="g163">
     <path d="m362.4,572.1c-0.3,0 -0.4,-0.1 -0.4,-0.2c-0.2,-0.2 -0.2,-0.7 -0.2,-0.9l0,-18.3c0,-0.2 0,-0.7 0.2,-0.9c0.1,-0.1 0.2,-0.2 0.4,-0.2c0.2,0 0.6,0.1 1.3,0.4c3,1.5 16.1,8.2 16.2,8.3c0.6,0.2 1.7,0.9 1.7,1.5c0,0.6 -1.1,1.3 -1.6,1.5c-0.2,0.1 -13.3,6.9 -16.2,8.3c-0.8,0.5 -1.2,0.5 -1.4,0.5l0,0z" id="path159"/>
     <path d="m362.4,552.2c0.1,0 0.5,0 1.1,0.3c3,1.4 16.1,8.2 16.2,8.3l0,0l0,0c0.7,0.3 1.3,0.8 1.3,1c0,0.2 -0.6,0.8 -1.3,1.1l0,0l0,0c-0.1,0.1 -13.2,6.9 -16.2,8.3c-0.6,0.3 -0.9,0.3 -1.1,0.3c0,0 -0.1,0 -0.1,0c0,0 0,0 0,0c0,-0.1 -0.1,-0.3 -0.1,-0.5l0,-0.1l0,0.1l0,-9.1l0,-9.1l0,-0.1l0,-0.1c0,-0.1 0.1,-0.3 0.2,-0.4c-0.1,0 -0.1,0 0,0m0,-1c-1.3,0 -1.1,1.6 -1.1,1.6l0,9.1l0,9.1c0,0 -0.2,1.6 1.1,1.6c0.4,0 0.9,-0.1 1.5,-0.4c3,-1.5 16.2,-8.3 16.2,-8.3s1.9,-0.8 1.9,-2c0,-1.2 -1.9,-2 -1.9,-2s-13.2,-6.8 -16.2,-8.3c-0.6,-0.3 -1.1,-0.4 -1.5,-0.4l0,0z" id="path161"/>
    </g>
    <g class="st18" id="g169">
     <path d="m327.9,615.6c-0.6,0 -1.3,-1.1 -1.5,-1.6c-0.1,-0.2 -6.9,-13.3 -8.3,-16.2c-0.4,-0.8 -0.5,-1.4 -0.3,-1.7c0.2,-0.3 0.6,-0.3 0.8,-0.3c0.1,0 0.1,0 0.2,0l18.3,0c0.1,0 0.1,0 0.2,0c0.2,0 0.6,0 0.8,0.3c0.2,0.3 0.1,0.9 -0.3,1.7c-1.5,3 -8.2,16.1 -8.3,16.2c-0.3,0.5 -1,1.6 -1.6,1.6z" id="path165"/>
     <path d="m318.5,596.3c0.1,0 0.1,0 0,0l0.2,0l0.1,0l9.1,0l9.1,0l0.1,0l0.1,0c0,0 0.1,0 0.1,0c0.2,0 0.3,0 0.4,0c0,0 0,0 0,0c0,0 0.1,0.3 -0.3,1.2c-1.4,3 -8.2,16.1 -8.3,16.2l0,0l0,0c-0.3,0.7 -0.8,1.3 -1,1.3c-0.2,0 -0.8,-0.6 -1.1,-1.3l0,0l0,0c-0.1,-0.1 -6.9,-13.2 -8.3,-16.2c-0.4,-0.9 -0.3,-1.2 -0.4,-1.2c-0.1,0 0,0 0.2,0m18.7,-1c-0.1,0 -0.2,0 -0.2,0l-9.1,0l-9.1,0c0,0 -0.1,0 -0.2,0c-0.6,0 -2.1,0.2 -0.9,2.7c1.5,3 8.3,16.2 8.3,16.2s0.8,1.9 2,1.9c1.2,0 2,-1.9 2,-1.9s6.8,-13.2 8.3,-16.2c1,-2.5 -0.5,-2.7 -1.1,-2.7l0,0z" id="path167"/>
    </g>
    <g class="st18" id="g173">
     <path d="m293.4,551.9c0.2,0 0.3,0.1 0.3,0.1c0.1,0.2 0.2,0.5 0.1,0.7l0,0l0,0l0,9.1l0,9.1l0,0l0,0c0,0.2 0,0.6 -0.1,0.7c0,0 -0.1,0.1 -0.3,0.1c-0.2,0 -0.6,-0.1 -1.2,-0.4c-3,-1.4 -16.1,-8.2 -16.2,-8.3l0,0l0,0c-0.6,-0.3 -1.5,-0.9 -1.5,-1.3c0,-0.5 0.9,-1.1 1.5,-1.3l0,0l0,0c0.1,-0.1 13.2,-6.9 16.2,-8.3c0.6,-0.1 1,-0.2 1.2,-0.2m0,-0.7c-0.4,0 -0.9,0.1 -1.5,0.4c-3,1.5 -16.2,8.3 -16.2,8.3s-1.9,0.8 -1.9,2c0,1.2 1.9,2 1.9,2s13.2,6.8 16.2,8.3c0.7,0.3 1.2,0.4 1.5,0.4c1.3,0 1.1,-1.6 1.1,-1.6l0,-9.1l0,-9.1c0,0 0.2,-1.6 -1.1,-1.6l0,0z" id="path171"/>
    </g>
    <g class="st18" id="g177">
     <path d="m327.9,508.4c0.4,0 1.1,0.9 1.3,1.5l0,0l0,0c0.1,0.1 6.9,13.2 8.3,16.2c0.5,1.1 0.4,1.4 0.3,1.5c-0.1,0.1 -0.3,0.2 -0.6,0.2c-0.1,0 -0.1,0 -0.1,0l0,0l0,0l-9.1,0l-9.1,0l0,0l0,0c0,0 -0.1,0 -0.1,0c-0.3,0 -0.5,-0.1 -0.6,-0.2c0,-0.1 -0.2,-0.4 0.3,-1.5c1.4,-3 8.2,-16.1 8.3,-16.2l0,0l0,0c0,-0.6 0.6,-1.5 1.1,-1.5m0,-0.7c-1.2,0 -2,1.9 -2,1.9s-6.8,13.2 -8.3,16.2c-1.2,2.5 0.3,2.7 0.9,2.7c0.1,0 0.2,0 0.2,0l9.1,0l9.1,0c0,0 0.1,0 0.2,0c0.6,0 2.1,-0.2 0.9,-2.7c-1.5,-3 -8.3,-16.2 -8.3,-16.2s-0.7,-1.9 -1.8,-1.9l0,0z" id="path175"/>
    </g>
    <g class="st18" id="g181">
     <path d="m362.4,551.9c0.2,0 0.6,0.1 1.2,0.4c3,1.4 16.1,8.2 16.2,8.3l0,0l0,0c0.6,0.3 1.5,0.9 1.5,1.3c0,0.5 -0.9,1.1 -1.5,1.3l0,0l0,0c-0.1,0.1 -13.2,6.9 -16.2,8.3c-0.6,0.3 -1,0.4 -1.2,0.4c-0.2,0 -0.3,-0.1 -0.3,-0.1c-0.1,-0.2 -0.2,-0.5 -0.1,-0.7l0,0l0,0l0,-9.1l0,-9.1l0,0l0,0c0,-0.1 0,-0.5 0.1,-0.7c0,-0.2 0.1,-0.3 0.3,-0.3m0,-0.7c-1.3,0 -1.1,1.6 -1.1,1.6l0,9.1l0,9.1c0,0 -0.2,1.6 1.1,1.6c0.4,0 0.9,-0.1 1.5,-0.4c3,-1.5 16.2,-8.3 16.2,-8.3s1.9,-0.8 1.9,-2c0,-1.2 -1.9,-2 -1.9,-2s-13.2,-6.8 -16.2,-8.3c-0.6,-0.3 -1.1,-0.4 -1.5,-0.4l0,0z" id="path179"/>
    </g>
    <g class="st18" id="g185">
     <path d="m318.5,596c0.1,0 0.1,0 0.1,0l0,0l0,0l9.1,0l9.1,0l0,0l0,0c0,0 0.1,0 0.1,0c0.3,0 0.5,0.1 0.6,0.2c0,0.1 0.2,0.4 -0.3,1.5c-1.4,3 -8.2,16.1 -8.3,16.2l0,0l0,0c-0.3,0.6 -0.9,1.5 -1.3,1.5c-0.5,0 -1.1,-0.9 -1.3,-1.5l0,0l0,0c-0.1,-0.1 -6.9,-13.2 -8.3,-16.2c-0.5,-1.1 -0.4,-1.4 -0.3,-1.5c0.3,-0.2 0.5,-0.2 0.8,-0.2m18.7,-0.7c-0.1,0 -0.2,0 -0.2,0l-9.1,0l-9.1,0c0,0 -0.1,0 -0.2,0c-0.6,0 -2.1,0.2 -0.9,2.7c1.5,3 8.3,16.2 8.3,16.2s0.8,1.9 2,1.9c1.2,0 2,-1.9 2,-1.9s6.8,-13.2 8.3,-16.2c1,-2.5 -0.5,-2.7 -1.1,-2.7l0,0z" id="path183"/>
    </g>
    <circle class="st21" cx="327.9" cy="561.9" r="13" id="circle187"/>
   </g>
   <g id="Start_1_">
    <circle class="st20" cx="489.3" cy="350" r="25.1" id="circle191"/>
    <circle class="st22" cx="489.3" cy="350" r="21.5" id="circle193"/>
   </g>
   <g id="g258">
    <g id="g244">
     <g class="st3" id="g218">
      <path d="m442.1,298.3l-2.5,1c-0.4,-1.1 -1,-1.7 -1.9,-1.7c-0.4,0 -0.8,0.1 -1,0.4c-0.3,0.3 -0.4,0.6 -0.4,0.9c0,0.4 0.2,0.7 0.5,0.9c0.3,0.2 0.9,0.5 1.9,0.9c0.9,0.3 1.6,0.7 2.1,1s0.9,0.8 1.2,1.3c0.3,0.6 0.5,1.2 0.5,1.9c0,1.3 -0.4,2.4 -1.3,3.2c-0.9,0.8 -2,1.2 -3.5,1.2c-2.4,0 -4,-1.3 -4.7,-3.8l2.6,-0.8c0.3,1.4 1,2.1 2.2,2.1c0.5,0 0.9,-0.1 1.3,-0.4s0.5,-0.6 0.5,-1.1c0,-0.3 -0.1,-0.6 -0.3,-0.9c-0.2,-0.3 -0.7,-0.6 -1.5,-0.8c-1,-0.4 -1.8,-0.7 -2.3,-1s-0.9,-0.7 -1.3,-1.3c-0.3,-0.6 -0.5,-1.2 -0.5,-2c0,-1.2 0.4,-2.3 1.2,-3.1s1.8,-1.2 3.1,-1.2c2.1,0.1 3.5,1.2 4.1,3.3z" id="path196"/>
      <path d="m443.2,295.3l8.4,0l0,2.6l-2.8,0l0,11.3l-3,0l0,-11.3l-2.7,0l0,-2.6l0.1,0z" id="path198"/>
      <path d="m454.7,295.3l3,0l3.9,13.9l-3,0l-0.7,-2.9l-3.8,0l-0.7,2.9l-2.7,0l4,-13.9zm2.6,8.6l-1.4,-5.7l-1.3,5.7l2.7,0z" id="path200"/>
      <path d="m462.7,295.3l4.2,0c0.8,0 1.5,0 1.9,0.1c0.4,0.1 0.9,0.3 1.3,0.6c0.4,0.3 0.8,0.8 1.1,1.4c0.3,0.6 0.4,1.3 0.4,2c0,1.7 -0.6,3 -1.9,3.7l2.5,6.1l-3.2,0l-1.8,-5.5l-1.5,0l0,5.5l-3,0l0,-13.9zm3,2.3l0,3.9l1.3,0c1.2,0 1.7,-0.7 1.7,-2c0,-0.5 -0.1,-0.8 -0.3,-1.1c-0.2,-0.3 -0.4,-0.5 -0.6,-0.6c-0.2,-0.1 -0.6,-0.2 -1,-0.2l-1.1,0z" id="path202"/>
      <path d="m472.6,295.3l8.4,0l0,2.6l-2.8,0l0,11.3l-3,0l0,-11.3l-2.7,0l0,-2.6l0.1,0z" id="path204"/>
      <path d="m489.7,295.7l1.8,0l-8,16.9l-1.8,0l8,-16.9z" id="path206"/>
      <path d="m495,295.3l3.9,0c1.2,0 2.1,0.1 2.7,0.3c0.6,0.2 1.2,0.7 1.6,1.4s0.7,1.6 0.7,2.7c0,1 -0.2,1.9 -0.5,2.5s-0.9,1.1 -1.5,1.4c-0.6,0.3 -1.6,0.4 -2.9,0.4l-1,0l0,5.1l-3,0l0,-13.8zm3,2.3l0,4.1l0.9,0c0.8,0 1.3,-0.2 1.6,-0.6c0.2,-0.4 0.4,-0.9 0.4,-1.5c0,-0.5 -0.1,-0.9 -0.3,-1.3c-0.2,-0.3 -0.4,-0.5 -0.6,-0.6c-0.2,-0.1 -0.6,-0.1 -1,-0.1l-1,0z" id="path208"/>
      <path d="m507.4,295.3l3,0l3.9,13.9l-3,0l-0.7,-2.9l-3.8,0l-0.7,2.9l-2.7,0l4,-13.9zm2.6,8.6l-1.4,-5.7l-1.3,5.7l2.7,0z" id="path210"/>
      <path d="m515.2,295.3l3,0l0,7.9c0,1.1 0,1.9 0.1,2.3c0.1,0.4 0.3,0.8 0.6,1c0.3,0.2 0.7,0.3 1.2,0.3c0.5,0 0.9,-0.1 1.2,-0.4s0.5,-0.6 0.5,-1c0.1,-0.4 0.1,-1.2 0.1,-2.3l0,-7.9l2.5,0l0,7.8c0,1.6 -0.1,2.7 -0.3,3.5c-0.2,0.8 -0.6,1.4 -1.3,2c-0.7,0.5 -1.7,0.8 -3,0.8c-1.2,0 -2.1,-0.2 -2.8,-0.6s-1.2,-1 -1.4,-1.7s-0.4,-2 -0.4,-3.9l0,-7.8z" id="path212"/>
      <path d="m535.2,298.3l-2.5,1c-0.4,-1.1 -1,-1.7 -1.9,-1.7c-0.4,0 -0.8,0.1 -1,0.4c-0.3,0.3 -0.4,0.6 -0.4,0.9c0,0.4 0.2,0.7 0.5,0.9c0.3,0.2 0.9,0.5 1.9,0.9c0.9,0.3 1.6,0.7 2.1,1s0.9,0.8 1.2,1.3c0.3,0.6 0.5,1.2 0.5,1.9c0,1.3 -0.4,2.4 -1.3,3.2c-0.9,0.8 -2,1.2 -3.5,1.2c-2.4,0 -4,-1.3 -4.7,-3.8l2.6,-0.8c0.3,1.4 1,2.1 2.2,2.1c0.5,0 0.9,-0.1 1.3,-0.4s0.5,-0.6 0.5,-1.1c0,-0.3 -0.1,-0.6 -0.3,-0.9c-0.2,-0.3 -0.7,-0.6 -1.5,-0.8c-1,-0.4 -1.8,-0.7 -2.3,-1s-0.9,-0.7 -1.3,-1.3c-0.3,-0.6 -0.5,-1.2 -0.5,-2c0,-1.2 0.4,-2.3 1.2,-3.1s1.8,-1.2 3.1,-1.2c2,0.1 3.5,1.2 4.1,3.3z" id="path214"/>
      <path d="m537.3,295.3l8.2,0l0,2.4l-5.2,0l0,3.2l4.1,0l0,2.4l-4.1,0l0,3.4l5.2,0l0,2.5l-8.2,0l0,-13.9z" id="path216"/>
     </g>
     <g class="st4" id="g242">
      <path class="st5" d="m442.1,298.3l-2.5,1c-0.4,-1.1 -1,-1.7 -1.9,-1.7c-0.4,0 -0.8,0.1 -1,0.4c-0.3,0.3 -0.4,0.6 -0.4,0.9c0,0.4 0.2,0.7 0.5,0.9c0.3,0.2 0.9,0.5 1.9,0.9c0.9,0.3 1.6,0.7 2.1,1s0.9,0.8 1.2,1.3c0.3,0.6 0.5,1.2 0.5,1.9c0,1.3 -0.4,2.4 -1.3,3.2c-0.9,0.8 -2,1.2 -3.5,1.2c-2.4,0 -4,-1.3 -4.7,-3.8l2.6,-0.8c0.3,1.4 1,2.1 2.2,2.1c0.5,0 0.9,-0.1 1.3,-0.4s0.5,-0.6 0.5,-1.1c0,-0.3 -0.1,-0.6 -0.3,-0.9c-0.2,-0.3 -0.7,-0.6 -1.5,-0.8c-1,-0.4 -1.8,-0.7 -2.3,-1s-0.9,-0.7 -1.3,-1.3c-0.3,-0.6 -0.5,-1.2 -0.5,-2c0,-1.2 0.4,-2.3 1.2,-3.1s1.8,-1.2 3.1,-1.2c2.1,0.1 3.5,1.2 4.1,3.3z" id="path220"/>
      <path class="st5" d="m443.2,295.3l8.4,0l0,2.6l-2.8,0l0,11.3l-3,0l0,-11.3l-2.7,0l0,-2.6l0.1,0z" id="path222"/>
      <path class="st5" d="m454.7,295.3l3,0l3.9,13.9l-3,0l-0.7,-2.9l-3.8,0l-0.7,2.9l-2.7,0l4,-13.9zm2.6,8.6l-1.4,-5.7l-1.3,5.7l2.7,0z" id="path224"/>
      <path class="st5" d="m462.7,295.3l4.2,0c0.8,0 1.5,0 1.9,0.1c0.4,0.1 0.9,0.3 1.3,0.6c0.4,0.3 0.8,0.8 1.1,1.4c0.3,0.6 0.4,1.3 0.4,2c0,1.7 -0.6,3 -1.9,3.7l2.5,6.1l-3.2,0l-1.8,-5.5l-1.5,0l0,5.5l-3,0l0,-13.9zm3,2.3l0,3.9l1.3,0c1.2,0 1.7,-0.7 1.7,-2c0,-0.5 -0.1,-0.8 -0.3,-1.1c-0.2,-0.3 -0.4,-0.5 -0.6,-0.6c-0.2,-0.1 -0.6,-0.2 -1,-0.2l-1.1,0z" id="path226"/>
      <path class="st5" d="m472.6,295.3l8.4,0l0,2.6l-2.8,0l0,11.3l-3,0l0,-11.3l-2.7,0l0,-2.6l0.1,0z" id="path228"/>
      <path class="st5" d="m489.7,295.7l1.8,0l-8,16.9l-1.8,0l8,-16.9z" id="path230"/>
      <path class="st5" d="m495,295.3l3.9,0c1.2,0 2.1,0.1 2.7,0.3c0.6,0.2 1.2,0.7 1.6,1.4s0.7,1.6 0.7,2.7c0,1 -0.2,1.9 -0.5,2.5s-0.9,1.1 -1.5,1.4c-0.6,0.3 -1.6,0.4 -2.9,0.4l-1,0l0,5.1l-3,0l0,-13.8zm3,2.3l0,4.1l0.9,0c0.8,0 1.3,-0.2 1.6,-0.6c0.2,-0.4 0.4,-0.9 0.4,-1.5c0,-0.5 -0.1,-0.9 -0.3,-1.3c-0.2,-0.3 -0.4,-0.5 -0.6,-0.6c-0.2,-0.1 -0.6,-0.1 -1,-0.1l-1,0z" id="path232"/>
      <path class="st5" d="m507.4,295.3l3,0l3.9,13.9l-3,0l-0.7,-2.9l-3.8,0l-0.7,2.9l-2.7,0l4,-13.9zm2.6,8.6l-1.4,-5.7l-1.3,5.7l2.7,0z" id="path234"/>
      <path class="st5" d="m515.2,295.3l3,0l0,7.9c0,1.1 0,1.9 0.1,2.3c0.1,0.4 0.3,0.8 0.6,1c0.3,0.2 0.7,0.3 1.2,0.3c0.5,0 0.9,-0.1 1.2,-0.4s0.5,-0.6 0.5,-1c0.1,-0.4 0.1,-1.2 0.1,-2.3l0,-7.9l2.5,0l0,7.8c0,1.6 -0.1,2.7 -0.3,3.5c-0.2,0.8 -0.6,1.4 -1.3,2c-0.7,0.5 -1.7,0.8 -3,0.8c-1.2,0 -2.1,-0.2 -2.8,-0.6s-1.2,-1 -1.4,-1.7s-0.4,-2 -0.4,-3.9l0,-7.8z" id="path236"/>
      <path class="st5" d="m535.2,298.3l-2.5,1c-0.4,-1.1 -1,-1.7 -1.9,-1.7c-0.4,0 -0.8,0.1 -1,0.4c-0.3,0.3 -0.4,0.6 -0.4,0.9c0,0.4 0.2,0.7 0.5,0.9c0.3,0.2 0.9,0.5 1.9,0.9c0.9,0.3 1.6,0.7 2.1,1s0.9,0.8 1.2,1.3c0.3,0.6 0.5,1.2 0.5,1.9c0,1.3 -0.4,2.4 -1.3,3.2c-0.9,0.8 -2,1.2 -3.5,1.2c-2.4,0 -4,-1.3 -4.7,-3.8l2.6,-0.8c0.3,1.4 1,2.1 2.2,2.1c0.5,0 0.9,-0.1 1.3,-0.4s0.5,-0.6 0.5,-1.1c0,-0.3 -0.1,-0.6 -0.3,-0.9c-0.2,-0.3 -0.7,-0.6 -1.5,-0.8c-1,-0.4 -1.8,-0.7 -2.3,-1s-0.9,-0.7 -1.3,-1.3c-0.3,-0.6 -0.5,-1.2 -0.5,-2c0,-1.2 0.4,-2.3 1.2,-3.1s1.8,-1.2 3.1,-1.2c2,0.1 3.5,1.2 4.1,3.3z" id="path238"/>
      <path class="st5" d="m537.3,295.3l8.2,0l0,2.4l-5.2,0l0,3.2l4.1,0l0,2.4l-4.1,0l0,3.4l5.2,0l0,2.5l-8.2,0l0,-13.9z" id="path240"/>
     </g>
    </g>
    <text transform="matrix(0.9746,0,0,1,432.5815,309.188) " class="st23" id="text256">
     <tspan x="0" y="0" class="st24 st25 st26" id="tspan246">START</tspan>
     <tspan x="48.9" y="0" class="st24 st25 st27" id="tspan248"/>
     <tspan x="50.2" y="0" class="st24 st25 st28" id="tspan250">/</tspan>
     <tspan x="60.9" y="3.5" class="st24 st25 st29" id="tspan252"/>
     <tspan x="62.2" y="0" class="st24 st25 st26" id="tspan254">PAUSE</tspan>
    </text>
   </g>
   <g id="Triggers">
    <g id="g264"/>
    <g id="g270"/>
   </g>
   <g id="Buttons_1_">
    <g id="g287">
     <g id="g275">
      <circle class="st31" cx="788.2" cy="344.7" r="57" id="circle273"/>
     </g>
     <g class="st2" id="g285">
      <g class="st3" id="g279">
       <path d="m785,327.3l6.5,0l6.9,30.9l-5.5,0l-1.2,-6.5l-6.9,0l-1.2,6.5l-5.5,0l6.9,-30.9zm0.7,19.3l5.1,0l-2.5,-13.9l-0.1,0l-2.5,13.9z" id="path277"/>
      </g>
      <g class="st4" id="g283">
       <path class="st5" d="m785,327.3l6.5,0l6.9,30.9l-5.5,0l-1.2,-6.5l-6.9,0l-1.2,6.5l-5.5,0l6.9,-30.9zm0.7,19.3l5.1,0l-2.5,-13.9l-0.1,0l-2.5,13.9z" id="path281"/>
      </g>
     </g>
    </g>
    <g id="g303">
     <g id="g291">
      <path class="st22" d="m786.7,259.2c0.2,0 0.3,0 0.3,0s26.5,-2.8 22,-29c-2.9,-17 -22.3,-21.6 -39.1,-21.6c-9.2,0 -17.6,1.4 -22.2,2.9c-13,4.3 -46.8,24.4 -39.8,45.2c5.2,15.5 17.6,17.5 23.5,17.5c2,0 3.2,-0.2 3.2,-0.2c14.5,-4.6 16.3,-8.9 26.8,-11.9c9.8,-2.7 23.3,-2.9 25.3,-2.9z" id="path289"/>
     </g>
     <g class="st2" id="g301">
      <g class="st3" id="g295">
       <path d="m754.3,224.4l3.4,11.6l0.1,0l3.6,-11.6l5.7,0l-6.7,18.2l0,11.8l-5.3,0l0,-11.8l-6.7,-18.2l5.9,0z" id="path293"/>
      </g>
      <g class="st4" id="g299">
       <path class="st5" d="m754.3,224.4l3.4,11.6l0.1,0l3.6,-11.6l5.7,0l-6.7,18.2l0,11.8l-5.3,0l0,-11.8l-6.7,-18.2l5.9,0z" id="path297"/>
      </g>
     </g>
    </g>
    <g id="g319">
     <g id="g307">
      <path class="st22" d="m924.2,315.4c-2.9,-12.4 -18.2,-43.9 -37.5,-43.9c-1.4,0 -2.9,0.2 -4.3,0.5c-21.3,5.3 -19.4,25.2 -19.4,25.2c3.4,14.8 7.5,16.9 9.6,27.6c2.1,10.7 0.8,25.7 0.8,25.7s0.5,24.5 23.9,24.5c1,0 2.1,0 3.2,-0.1c26.5,-2.3 26.9,-46.2 23.7,-59.5z" id="path305"/>
     </g>
     <g class="st2" id="g317">
      <g class="st3" id="g311">
       <path d="m889,306l5.8,0l3.4,9.7l3.3,-9.7l5.7,0l-6.1,14.8l6.5,15.1l-5.9,0l-3.8,-10.1l-3.7,10.1l-5.8,0l6.5,-15.1l-5.9,-14.8z" id="path309"/>
      </g>
      <g class="st4" id="g315">
       <path class="st5" d="m889,306l5.8,0l3.4,9.7l3.3,-9.7l5.7,0l-6.1,14.8l6.5,15.1l-5.9,0l-3.8,-10.1l-3.7,10.1l-5.8,0l6.5,-15.1l-5.9,-14.8z" id="path313"/>
      </g>
     </g>
    </g>
    <g id="g335">
     <g id="g323">
      <circle class="st32" cx="676.5" cy="401.7" r="35.5" id="circle321"/>
     </g>
     <g class="st2" id="g333">
      <g class="st3" id="g327">
       <path d="m668.8,384l8.8,0c4.3,0 7.4,1.9 7.4,8c0,3.4 -1.3,6 -3.9,6.9l0,0.1c2.9,0.5 4.7,3.1 4.7,7.4c0,5 -2,9.3 -8.1,9.3l-8.9,0l0,-31.7zm5.3,13l1.5,0c2.9,0 4.2,-1.2 4.2,-4.2s-1.2,-4.1 -3.8,-4.1l-1.9,0l0,8.3zm0,14l2,0c2.5,0 4.2,-1.1 4.2,-4.8s-1.7,-4.7 -4,-4.7l-2.3,0l0,9.5l0.1,0z" id="path325"/>
      </g>
      <g class="st4" id="g331">
       <path class="st5" d="m668.8,384l8.8,0c4.3,0 7.4,1.9 7.4,8c0,3.4 -1.3,6 -3.9,6.9l0,0.1c2.9,0.5 4.7,3.1 4.7,7.4c0,5 -2,9.3 -8.1,9.3l-8.9,0l0,-31.7zm5.3,13l1.5,0c2.9,0 4.2,-1.2 4.2,-4.2s-1.2,-4.1 -3.8,-4.1l-1.9,0l0,8.3zm0,14l2,0c2.5,0 4.2,-1.1 4.2,-4.8s-1.7,-4.7 -4,-4.7l-2.3,0l0,9.5l0.1,0z" id="path329"/>
      </g>
     </g>
    </g>
    <path id="Z_Button_1_" class="st1" d="m832.2,179.9c5.8,1.9 11.6,4.2 17.5,6.8c10.6,4.2 21.5,9.6 32.5,16.4c3.1,2.2 6,4.4 8.8,6.6c0.6,-0.8 1.3,-2 2.4,-3.6c4.6,-9 -27.8,-37.3 -74,-54.6s-76.9,-12.7 -79.2,-12.1c-1.6,0.4 -3.1,1.9 -3.8,2.8c52.5,17.1 87.8,33.8 95.8,37.7z"/>
   </g>
  </g>
 </g>
</svg>